<svg height="387pt" viewBox="-49 0 387 387.12" width="387pt" xmlns="http://www.w3.org/2000/svg"><path d="m64.242188 291.121094h-32.183594v16c0 8.824218-7.175782 16-16 16h-16.0000002v64h288.0000002v-64h-16c-8.824219 0-16-7.175782-16-16v-16h-32l-20.023438-128h36.023438v-32h-33.886719c6.464844-11.097656 9.886719-24.59375 9.886719-40 0-42.777344-56.765625-81.152344-63.238282-85.394532l-8.761718-5.726562-8.757813 5.726562c-6.472656 4.242188-63.242187 42.617188-63.242187 85.394532 0 15.421875 3.425781 28.925781 9.882812 40h-33.882812v32h36.097656l-19.902344 125.503906zm162.5625 32c4.832031 13.613281 15.640624 24.429687 29.253906 29.253906v2.746094h-224v-2.746094c13.617187-4.832031 24.433594-15.640625 29.257812-29.253906zm-130.550782-32 20.820313-131.960938c1.019531.328125 2.097656.582032 3.144531.871094.921875.257812 1.816406.542969 2.753906.761719 1.3125.3125 2.679688.542969 4.03125.792969.886719.15625 1.753906.359374 2.65625.492187 1.535156.234375 3.121094.378906 4.703125.53125.785157.070313 1.535157.191406 2.328125.246094 2.402344.175781 4.855469.265625 7.367188.265625 2.511718 0 4.96875-.089844 7.371094-.265625.824218-.054688 1.605468-.183594 2.421874-.261719 1.542969-.152344 3.097657-.289062 4.59375-.515625 1.007813-.148437 1.964844-.375 2.957032-.558594 1.242187-.230469 2.496094-.441406 3.699218-.71875 1.101563-.265625 2.167969-.59375 3.238282-.898437.894531-.253906 1.824218-.460938 2.703125-.75l20.824219 131.96875zm47.820313-252.335938c16.839843 12.933594 39.984375 35.398438 39.984375 52.335938 0 9.65625-1.964844 22.878906-11.4375 31.167968-6.578125 5.863282-16.183594 8.832032-28.5625 8.832032-12.375 0-21.984375-2.96875-28.664063-8.914063l-.007812-.007812c-9.359375-8.199219-11.328125-21.429688-11.328125-31.078125 0-16.855469 23.167968-39.367188 40.015625-52.335938zm0 0"/></svg>