<svg height="384pt" viewBox="-48 0 384 384" width="384pt" xmlns="http://www.w3.org/2000/svg"><path d="m64.136719 288h-32.136719v16c0 8.824219-7.175781 16-16 16h-16v64h288v-64h-16c-8.824219 0-16-7.175781-16-16v-16h-32l-4.28125-32h36.28125v-70.632812l-51.121094-51.109376 51.121094-19.167968v-83.089844h-98.742188c-6.601562-18.625-24.402343-32-45.257812-32h-48v34.742188c-18.625 6.601562-32 24.402343-32 45.257812v176h36.222656l-4.078125 29.832031zm162.605469 32c4.832031 13.617188 15.640624 24.433594 29.257812 29.257812v2.742188h-224v-2.742188c13.617188-4.832031 24.433594-15.640624 29.257812-29.257812zm-162.742188-240c0-8.824219 7.175781-16 16-16h16v-32h16c8.824219 0 16 7.175781 16 16v16h96v28.910156l-43.976562 16.488282-24.710938-24.710938-22.625 22.625 14.433594 14.429688 76.878906 76.890624v25.367188h-160zm123.480469 176 4.375 32h-95.703125l4.375-32zm0 0"/></svg>