<svg height="384pt" viewBox="-48 0 384 384" width="384pt" xmlns="http://www.w3.org/2000/svg"><path d="m64.199219 288h-32.199219v16c0 8.824219-7.175781 16-16 16h-16v64h288v-64h-16c-8.824219 0-16-7.175781-16-16v-16h-32l-21.144531-128h37.144531v-32h-34.496094l19.640625-65.480469-31.257812-62.519531h-99.773438l-31.257812 62.519531 19.640625 65.480469h-34.496094v32h37.113281l-20.898437 125.367188zm162.542969 32c4.832031 13.617188 15.640624 24.433594 29.257812 29.257812v2.742188h-224v-2.742188c13.617188-4.832031 24.433594-15.640624 29.257812-29.257812zm-130.527344-32 21.335937-128h52.898438l21.335937 128zm77.898437-256 11.886719 23.769531c-11.574219 4.0625-27.289062 8.230469-42 8.230469-15.3125 0-30.984375-4.335938-41.992188-8.238281l11.878907-23.761719zm-69.585937 58.089844c11.695312 3.246094 25.488281 5.910156 39.472656 5.910156s27.777344-2.664062 39.472656-5.910156l-11.375 37.910156h-56.1875zm0 0"/></svg>