<svg height="384pt" viewBox="-48 0 384 384" width="384pt" xmlns="http://www.w3.org/2000/svg"><path d="m64.136719 288h-32.136719v16c0 8.824219-7.175781 16-16 16h-16v64h288v-64h-16c-8.824219 0-16-7.175781-16-16v-16h-32l-21.6875-160h21.6875v-128h-32v32h-32v-32h-32v32h-32v-32h-32v128h21.671875l-21.519531 157.839844zm162.605469 32c4.832031 13.617188 15.640624 24.433594 29.257812 29.257812v2.742188h-224v-2.742188c13.617188-4.832031 24.433594-15.640624 29.257812-29.257812zm-34.742188-224h-96v-32h96zm-21.96875 32 21.816406 160h-95.695312l21.816406-160zm0 0"/></svg>