<svg height="384pt" viewBox="-48 0 384 384" width="384pt" xmlns="http://www.w3.org/2000/svg"><path d="m80.078125 304h128v-16l-24-144h-80l-24 144zm0 0" fill="#cce4ff"/><path d="m0 384h288v-64h-16c-8.824219 0-16-7.175781-16-16v-16h-32l-21.144531-128h37.144531v-32h-34.496094l20.566406-68.550781-27.445312-27.449219h-38.625v-32h-32v32h-38.632812l-27.4375 27.449219 20.558593 68.550781h-34.488281v32h37.113281l-20.898437 125.367188-.015625 2.632812h-32.199219v16c0 8.824219-7.175781 16-16 16h-16zm98.0625-315.449219 4.5625-4.550781h82.742188l4.5625 4.550781-17.839844 59.449219h-56.1875zm19.488281 91.449219h52.898438l21.328125 128h-95.5625zm-85.550781 189.257812c13.617188-4.832031 24.433594-15.640624 29.257812-29.257812h165.484376c4.832031 13.617188 15.640624 24.433594 29.257812 29.257812v2.742188h-224zm0 0" fill="#007aff"/></svg>