<svg height="384pt" viewBox="-48 0 384 384" width="384pt" xmlns="http://www.w3.org/2000/svg"><path d="m240.078125 304h-192c0 8.800781-3.597656 16.800781-9.359375 22.640625-5.839844 5.757813-13.839844 9.359375-22.640625 9.359375v32h256v-32c-17.679687 0-32-14.320312-32-32zm0 0" fill="#cce4ff"/><path d="m240.078125 48h-96c0-8.800781-3.597656-16.800781-9.359375-22.640625-5.839844-5.757813-13.839844-9.359375-22.640625-9.359375h-32v32c-17.679687 0-32 14.320312-32 32v160h192v-48l-64-64 64-24zm0 0" fill="#cce4ff"/><path d="m64.136719 288h-32.136719v16c0 8.824219-7.175781 16-16 16h-16v64h288v-64h-16c-8.824219 0-16-7.175781-16-16v-16h-32l-4.28125-32h36.28125v-70.632812l-51.121094-51.109376 51.121094-19.167968v-83.089844h-98.742188c-6.601562-18.625-24.402343-32-45.257812-32h-48v34.742188c-18.625 6.601562-32 24.402343-32 45.257812v176h36.222656l-4.078125 29.832031zm162.597656 32c4.832031 13.617188 15.640625 24.433594 29.257813 29.257812v2.742188h-224v-2.742188c13.617187-4.832031 24.433593-15.640624 29.253906-29.257812zm-162.734375-240c0-8.824219 7.175781-16 16-16h16v-32h16c8.824219 0 16 7.175781 16 16v16h96v28.910156l-43.976562 16.488282-24.710938-24.710938-22.625 22.625 14.433594 14.429688 76.878906 76.890624v25.367188h-160zm123.472656 176 4.375 32h-95.703125l4.375-32zm0 0" fill="#007aff"/></svg>