<svg height="384pt" viewBox="-48 0 384 384" width="384pt" xmlns="http://www.w3.org/2000/svg"><path d="m208.078125 288-27.4375-173.679688c-9.839844 8.558594-22.5625 13.679688-36.5625 13.679688s-26.71875-5.121094-36.558594-13.679688l-27.441406 173.679688v16h128zm0 0" fill="#cce4ff"/><path d="m64.175781 288h-32.175781v16c0 8.824219-7.175781 16-16 16h-16v64h288v-64h-16c-8.824219 0-16-7.175781-16-16v-16h-32l-26.375-168.128906c11.382812-12.734375 18.375-29.488282 18.375-47.871094 0-39.695312-32.304688-72-72-72s-72 32.304688-72 72c0 18.382812 6.984375 35.128906 18.367188 47.863281l-26.167969 165.640625zm162.558594 32c4.832031 13.617188 15.640625 24.433594 29.257813 29.257812v2.742188h-224v-2.742188c13.617187-4.832031 24.433593-15.640624 29.253906-29.257812zm-130.542969-32 23.441406-148.335938c7.625 2.75 15.800782 4.335938 24.367188 4.335938 8.558594 0 16.742188-1.585938 24.359375-4.335938l23.441406 148.335938zm47.808594-256c22.054688 0 40 17.945312 40 40s-17.945312 40-40 40-40-17.945312-40-40 17.945312-40 40-40zm0 0" fill="#007aff"/></svg>