<svg height="384pt" viewBox="-48 0 384 384" width="384pt" xmlns="http://www.w3.org/2000/svg"><path d="m80.078125 304h128v-16l-24-144h-80l-24 144zm0 0" fill="#cce4ff"/><path d="m208.078125 64-24-48h-80l-24 48s32 16 64 16 64-16 64-16zm0 0" fill="#cce4ff"/><path d="m64.199219 288h-32.199219v16c0 8.824219-7.175781 16-16 16h-16v64h288v-64h-16c-8.824219 0-16-7.175781-16-16v-16h-32l-21.144531-128h37.144531v-32h-34.496094l19.640625-65.480469-31.257812-62.519531h-99.78125l-31.257813 62.519531 19.640625 65.480469h-34.488281v32h37.113281l-20.898437 125.367188zm162.535156 32c4.832031 13.617188 15.640625 24.433594 29.257813 29.257812v2.742188h-224v-2.742188c13.617187-4.832031 24.433593-15.640624 29.253906-29.257812zm-130.519531-32 21.335937-128h52.898438l21.335937 128zm77.890625-256 11.886719 23.769531c-11.566407 4.0625-27.28125 8.230469-41.992188 8.230469-15.3125 0-30.984375-4.335938-41.992188-8.238281l11.878907-23.761719zm-69.578125 58.089844c11.695312 3.246094 25.480468 5.910156 39.472656 5.910156 13.984375 0 27.777344-2.664062 39.472656-5.910156l-11.382812 37.910156h-56.1875zm0 0" fill="#007aff"/></svg>