<svg height="384pt" viewBox="-48 0 384 384" width="384pt" xmlns="http://www.w3.org/2000/svg"><path d="m208.078125 288-24-176h-80l-24 176v16h128zm0 0" fill="#cce4ff"/><path d="m64.136719 288h-32.136719v16c0 8.824219-7.175781 16-16 16h-16v64h288v-64h-16c-8.824219 0-16-7.175781-16-16v-16h-32l-21.6875-160h21.6875v-128h-32v32h-32v-32h-32v32h-32v-32h-32v128h21.671875l-21.519531 157.839844zm162.597656 32c4.832031 13.617188 15.640625 24.433594 29.257813 29.257812v2.742188h-224v-2.742188c13.617187-4.832031 24.433593-15.640624 29.253906-29.257812zm-34.734375-224h-96v-32h96zm-21.96875 32 21.816406 160h-95.703125l21.816407-160zm0 0" fill="#007aff"/></svg>